<svg width="26" height="28" viewBox="0 0 26 28" fill="none" xmlns="http://www.w3.org/2000/svg">
<g clip-path="url(#clip0_24_27)">
<path d="M23.8154 3.78021H21.878V2.24167C21.878 1.00713 20.8781 0.00231934 19.6495 0.00231934H18.294C17.0655 0.00231934 16.0655 1.00713 16.0655 2.24167V3.78021H9.95985V2.24167C9.95985 1.00713 8.95994 0.00231934 7.73142 0.00231934H6.37588C5.14735 0.00231934 4.14744 1.00713 4.14744 2.24167V3.78021H2.19149C0.983746 3.78021 0.00692749 4.76413 0.00692749 5.97547V25.8047C0.00692749 27.0184 0.986055 28 2.19149 28H23.8201C25.0278 28 26.0046 27.0161 26.0046 25.8047V5.97547C26.0046 4.76181 25.0255 3.78021 23.8201 3.78021H23.8154ZM17.9106 2.23935C17.9106 2.02818 18.0815 1.85645 18.2917 1.85645H19.6472C19.8574 1.85645 20.0282 2.02818 20.0282 2.23935V7.05685C20.0282 7.26802 19.8574 7.43975 19.6472 7.43975H18.2917C18.0815 7.43975 17.9106 7.26802 17.9106 7.05685V2.23935ZM5.98792 2.23935C5.98792 2.02818 6.15881 1.85645 6.36895 1.85645H7.72449C7.93463 1.85645 8.10552 2.02818 8.10552 2.23935V7.05685C8.10552 7.26802 7.93463 7.43975 7.72449 7.43975H6.36895C6.15881 7.43975 5.98792 7.26802 5.98792 7.05685V2.23935ZM23.9909 26.0205H1.97211V9.90883H23.9933V26.0182L23.9909 26.0205Z" fill="#848484"/>
</g>
<defs>
<clipPath id="clip0_24_27">
<rect width="26" height="28" fill="white"/>
</clipPath>
</defs>
</svg>
