<svg width="21" height="21" viewBox="0 0 21 21" fill="none" xmlns="http://www.w3.org/2000/svg">
<path d="M10.5004 0C4.71073 0 0 4.71054 0 10.5C0 15.2567 3.18066 19.2822 7.52517 20.5681L7.54665 20.6113C7.55307 20.6081 7.56962 20.6002 7.59382 20.5876C8.51839 20.8541 9.49234 21 10.5004 21C16.2905 21 21 16.2902 21 10.4998C21 4.70931 16.2905 0 10.5004 0ZM10.5004 20.3932C9.74373 20.3932 9.00734 20.3053 8.29935 20.1428C9.07772 19.5689 10.1818 18.4621 10.2233 16.7804C10.2707 14.8142 9.53555 13.5098 9.09525 12.7309C8.98511 12.5356 8.88955 12.3672 8.83942 12.243C8.61815 11.7014 8.83472 11.0944 8.8367 11.0895L8.99944 10.6521C8.83472 10.6943 8.61346 10.7514 8.3191 10.8265C6.49393 11.2967 6.32502 10.28 6.32502 10.28C6.31539 10.2538 6.30724 10.2284 6.29958 10.2034L8.55543 10.5563L9.02561 10.4328C9.03006 10.4247 9.47876 9.65914 10.4211 9.4564C10.8804 9.35663 11.239 9.34329 11.4849 9.37935C12.1939 9.48282 12.7241 9.29464 12.7241 9.29464L14.3945 8.79852C14.472 9.20253 14.2638 9.59518 13.0269 10.3499C12.8757 10.442 12.7199 10.5375 12.5715 10.6336C12.45 10.7136 12.3174 10.7941 12.1786 10.8788C11.9596 11.0132 11.7341 11.151 11.5128 11.3063L11.1822 11.5392L11.4988 11.7918C11.5356 11.8219 15.2089 14.8001 15.3086 19.1422C13.8848 19.9381 12.2445 20.3932 10.5004 20.3932ZM15.9023 18.7826C15.6694 15.0639 13.099 12.4141 12.1885 11.5866C12.2907 11.5219 12.3937 11.4594 12.4954 11.3972C12.6379 11.3097 12.7735 11.2265 12.9036 11.1416C13.0437 11.0509 13.1881 10.962 13.3425 10.8684C14.2539 10.3123 15.3879 9.62086 14.877 8.31253L14.7752 8.052L12.6476 8.68419C12.6476 8.68419 12.1485 8.89039 11.5333 8.77259C11.2336 8.7153 10.814 8.75086 10.2932 8.86372C9.85412 8.95805 9.50148 9.14697 9.22737 9.3507C9.07599 9.30403 8.85991 9.23711 8.79719 9.21587C10.7834 8.44909 11.7057 7.11631 12.1332 6.07691C12.5767 4.997 12.5804 4.04353 12.57 3.76004L11.9638 3.92006C11.962 4.20158 11.928 4.75968 11.7279 5.40965C11.5168 5.47164 11.3217 5.46176 11.135 5.37854C10.6836 5.17554 10.3959 4.61695 10.2845 4.36284L9.69162 4.51891C9.80053 4.78858 10.1818 5.61487 10.8834 5.93096C11.0538 6.00727 11.2286 6.049 11.4069 6.05666C11.4311 6.05715 11.4528 6.05715 11.4761 6.05715C11.1916 6.67279 10.7965 7.20052 10.2937 7.64058C8.69224 7.68701 8.00597 5.44966 7.88225 4.99503L7.29477 5.15011C7.36021 5.39335 7.55308 6.03986 7.92621 6.67897C8.38133 7.45982 8.9493 7.95668 9.59433 8.15349C9.1197 8.44415 8.57839 8.67851 7.96943 8.85335C5.96497 7.77492 5.56541 5.91046 5.51454 5.61931L4.92607 5.77439C5.03547 6.32978 5.68691 8.8368 8.71767 9.82855C8.68013 9.87275 8.64705 9.91547 8.61889 9.95251L5.65802 9.48899L5.64196 9.82682C5.64073 9.86115 5.60764 10.6793 6.24303 11.167C6.68901 11.5093 7.32836 11.5903 8.15044 11.4078C8.11611 11.7061 8.12179 12.0941 8.2786 12.4744C8.34256 12.6329 8.44652 12.8159 8.56605 13.0302C9.00215 13.8015 9.66051 14.9668 9.61631 16.7671C9.57432 18.5172 8.1013 19.5805 7.51826 19.9332C3.5165 18.6646 0.607239 14.9157 0.607239 10.5C0.607239 5.0454 5.04534 0.606752 10.5004 0.606752C15.9554 0.606752 20.3933 5.0454 20.3933 10.5C20.3933 13.963 18.6036 17.0143 15.9023 18.7826ZM9.05352 10.5054L9.04561 10.5081L9.05352 10.5077V10.5054Z" fill="#5C487A"/>
</svg>
