<svg width="24" height="24" viewBox="0 0 24 24" fill="none" xmlns="http://www.w3.org/2000/svg">
<path d="M12 0C18.6274 0 24 5.37258 24 12C24 18.6274 18.6274 24 12 24C5.37258 24 0 18.6274 0 12C0 5.37258 5.37258 0 12 0ZM10.6641 5.35938C9.34791 5.21016 8.04697 6.14307 7.67383 7.39062C7.63185 7.53707 7.6053 7.70782 7.57324 7.85645L7.55273 8.5791C7.61855 10.0042 8.16631 11.357 8.80371 12.584C9.86272 14.5972 11.8761 17.5227 14.0117 18.4404L14.5107 18.6309L14.9766 18.7314L15.5225 18.7461C16.5033 18.7192 17.4518 18.0725 17.8965 17.2139C17.9661 17.0836 18.0087 16.9367 18.0762 16.8164L18.125 16.5889C18.1228 16.2148 17.8837 15.9766 17.6064 15.7715C17.1347 15.4102 16.3605 14.9106 15.832 14.6201C14.8681 14.0908 14.8211 14.7859 14.2744 15.3008C13.9617 15.5963 13.3887 15.3697 13.0938 15.1504C11.8212 14.222 10.4719 12.1139 10.1514 10.5713C10.0833 10.2142 10.12 9.61048 10.5059 9.45508C11.2102 9.17132 11.8553 9.40373 11.7686 8.31641C11.7081 7.58737 11.509 6.82804 11.4287 6.09473C11.3456 5.80709 11.2161 5.54086 10.9219 5.41504L10.6641 5.35938Z" fill="white"/>
</svg>
